<svg version="1.1" id="Layer_1" xmlns="http://www.w3.org/2000/svg" xmlns:xlink="http://www.w3.org/1999/xlink" x="0px" y="0px"
	 width="100%" viewBox="0 0 352 336" enable-background="new 0 0 352 336" xml:space="preserve">
<path fill="#000000" opacity="1.000000" stroke="none" 
	d="
M10.399996,337.000000 
	C6.540961,323.862946 9.478172,311.137360 13.198779,298.708984 
	C22.370516,268.071472 38.553497,241.298187 59.218338,217.041718 
	C79.972221,192.680679 105.349037,173.859894 131.446747,155.838272 
	C137.613129,151.580109 143.525391,146.955444 149.650742,142.635757 
	C152.166016,140.861954 152.912872,139.154205 151.862106,135.957245 
	C146.554413,119.808296 148.548157,104.118217 155.557358,88.877769 
	C156.692444,86.409691 158.115433,83.893555 160.586227,82.844231 
	C165.498352,80.758072 167.039261,76.725899 168.400070,72.079033 
	C173.353256,55.165127 181.293900,39.949390 194.715179,28.079803 
	C216.136673,9.134970 240.741959,5.404314 267.541290,13.343368 
	C302.179413,23.604591 324.703491,46.252949 336.945404,80.200241 
	C348.214844,111.450912 353.325928,143.308624 349.101196,176.295593 
	C345.291321,206.043472 330.977203,228.790741 302.891785,241.644150 
	C293.648315,245.874435 284.335327,249.908356 274.769043,253.345261 
	C270.379242,254.922394 266.071167,256.601776 262.012360,258.994171 
	C254.734604,263.283936 246.545425,263.958679 238.352966,264.065338 
	C224.359146,264.247528 210.332672,263.623871 196.371796,264.344391 
	C130.589203,267.739349 71.146362,288.049530 20.502808,331.326477 
	C18.479607,333.055389 16.429249,334.752533 14.195770,336.732239 
	C12.933331,337.000000 11.866661,337.000000 10.399996,337.000000 
M229.861359,17.115389 
	C205.772797,37.167320 195.226334,64.643715 187.818100,93.913040 
	C188.652130,67.519394 197.005508,44.050396 214.590286,24.069433 
	C196.777008,34.036919 185.223389,49.009407 178.097900,67.692657 
	C175.852127,73.581161 174.178589,79.781021 169.874420,84.684036 
	C168.988052,85.693718 168.892365,86.678802 169.610718,87.853340 
	C175.770782,97.925377 177.801849,109.146645 178.360352,121.042076 
	C183.647308,120.522491 186.883682,123.599670 190.236954,126.639046 
	C196.385437,132.211975 200.802658,138.978943 204.732071,146.210007 
	C209.053055,154.161636 214.525589,161.247375 221.620728,167.035004 
	C232.211411,175.673981 244.386429,180.670975 257.652161,183.386261 
	C259.201538,183.703400 261.531372,182.976395 262.106476,185.707199 
	C259.308167,186.881104 256.488800,186.307205 253.743439,186.002777 
	C229.057953,183.265228 211.031586,170.419952 198.453354,149.384628 
	C194.942261,143.512817 191.117111,137.889893 186.663864,132.661636 
	C183.848557,129.356354 181.553726,128.829529 178.042526,131.854553 
	C162.753220,145.026901 146.222687,156.574997 129.752151,168.193726 
	C103.661705,186.598526 78.905014,206.541153 59.087708,231.853134 
	C39.267471,257.168945 23.907681,284.803467 16.880463,316.547089 
	C16.327494,319.044952 16.008570,321.497955 16.282972,324.590302 
	C17.346630,323.633972 17.890207,323.240540 18.318098,322.746826 
	C38.188290,299.820221 61.920258,281.682281 88.134254,266.678436 
	C126.502388,244.718048 167.868088,232.724152 211.911499,229.606018 
	C225.870224,228.617798 239.839676,228.104752 253.819397,227.636047 
	C273.349670,226.981247 279.630402,220.321640 279.848938,200.902130 
	C279.897217,196.608749 278.033417,192.577164 278.354401,188.062317 
	C280.008423,188.338989 280.552094,189.366989 281.203094,190.320038 
	C281.821960,191.226105 281.847900,192.616119 283.289734,192.968109 
	C283.627716,192.605698 284.051697,192.303284 284.273071,191.891876 
	C295.680206,170.693558 313.250702,156.120071 334.304718,145.276184 
	C341.399353,141.622086 341.363312,141.539917 340.542419,133.742920 
	C339.131317,120.339928 337.102905,107.017929 334.425171,93.828781 
	C332.385345,83.781792 331.413971,73.240059 325.306091,64.486511 
	C307.653778,39.187901 283.845093,22.918192 253.529663,16.700659 
	C245.962769,15.148732 238.157318,13.328130 229.861359,17.115389 
M277.774811,241.693451 
	C286.753357,238.137833 295.677795,234.455750 304.136627,229.759567 
	C319.837952,221.042526 330.764038,208.406982 335.709503,190.945084 
	C338.940460,179.536789 340.726837,167.897339 340.887787,156.034851 
	C340.922699,153.464310 341.734741,150.774414 340.315521,148.348969 
	C338.490356,147.885910 337.271759,148.959747 336.038208,149.687866 
	C322.880066,157.454803 311.198639,167.018143 301.413391,178.781128 
	C293.745758,187.998520 287.715729,197.944443 286.945282,210.445099 
	C286.684387,214.678009 286.143707,219.365417 283.162445,222.675888 
	C278.581238,227.762939 278.701843,234.739273 275.316742,240.261642 
	C274.027649,242.364594 275.578857,242.400818 277.774811,241.693451 
M233.546555,255.076370 
	C237.375702,254.946609 241.215775,254.957169 245.031952,254.660507 
	C256.024536,253.806000 268.561279,243.250809 271.078674,233.361923 
	C236.204086,235.782501 200.736572,234.270874 166.331146,243.866409 
	C132.170441,253.393723 99.690346,266.374756 70.568947,286.951416 
	C71.895370,286.760376 73.086266,286.261230 74.258499,285.721527 
	C94.879471,276.228485 116.161476,268.794067 138.285248,263.470978 
	C169.353592,255.995789 200.938446,255.566757 233.546555,255.076370 
M160.181747,99.463272 
	C156.886200,102.149246 157.282242,106.177422 156.836548,109.701805 
	C155.760559,118.210487 155.605774,126.729836 159.249481,135.045059 
	C165.053238,130.736893 165.528595,111.607841 160.181747,99.463272 
M162.988007,91.472122 
	C168.427643,102.525604 169.950760,114.364761 169.128098,126.873947 
	C170.308868,126.389923 170.758942,126.351807 170.865311,126.140594 
	C174.367493,119.185760 171.055252,95.927742 165.838425,90.698753 
	C164.813889,89.671844 163.763565,88.786415 162.988007,91.472122 
z"/>
<path fill="#000000" opacity="1.000000" stroke="none" 
	d="
M205.617188,125.915443 
	C205.473389,104.935608 213.910080,89.280205 232.486511,80.119995 
	C259.614227,66.743080 292.582611,84.279716 297.190277,114.169083 
	C301.316101,140.932770 285.181610,165.419418 260.231537,170.259857 
	C233.193237,175.505432 206.424332,154.001175 205.617188,125.915443 
M215.954803,104.481186 
	C206.265152,123.583794 213.059708,144.460159 224.634125,154.419754 
	C241.290573,168.752319 266.377899,167.009811 280.285126,150.736374 
	C294.931549,133.597977 293.352142,106.108315 276.918243,92.135742 
	C256.891052,75.108063 229.931534,80.298431 215.954803,104.481186 
z"/>
<path fill="#000000" opacity="1.000000" stroke="none" 
	d="
M163.079269,165.976715 
	C167.362976,164.034470 171.292847,162.225800 175.244003,160.464935 
	C177.434952,159.488541 179.717667,159.347549 180.837692,161.814285 
	C182.062149,164.511032 180.378052,166.263260 177.977646,167.256348 
	C171.060440,170.118134 164.085144,172.840439 157.182663,175.736679 
	C142.567810,181.869019 128.728241,189.491623 115.206764,197.721863 
	C113.557953,198.725479 112.073601,200.212250 109.518349,199.473862 
	C125.421944,185.493210 143.914383,175.556625 163.079269,165.976715 
z"/>
<path fill="#000000" opacity="1.000000" stroke="none" 
	d="
M280.945129,108.377838 
	C289.258881,131.982468 276.559906,155.391418 253.434937,159.740601 
	C239.984375,162.270264 224.636215,153.797104 217.883392,140.113831 
	C207.194382,118.454689 219.661194,92.075409 242.882812,87.216026 
	C258.542786,83.939011 273.102783,91.930420 280.945129,108.377838 
M264.574493,147.102234 
	C272.557129,139.374710 276.553589,130.133743 275.733093,118.864952 
	C274.226349,98.170784 251.061630,85.958855 234.168884,97.255150 
	C225.900665,102.784164 220.887329,110.642174 219.935791,120.811417 
	C218.787842,133.079834 223.292999,142.665665 233.675720,149.235428 
	C243.356995,155.361343 254.347000,154.606613 264.574493,147.102234 
z"/>
</svg>